HIERARCHY
ROOT Hips
{
 OFFSET 0.000000 0.000000 0.000000
 CHANNELS 6 Xposition Yposition Zposition Yrotation Xrotation Zrotation
 JOINT Chest
 {
  OFFSET 0.000000 9.585900 0.002600
  CHANNELS 3 Yrotation Xrotation Zrotation
  JOINT Chest2
  {
   OFFSET 0.000000 9.601200 -0.005300
   CHANNELS 3 Yrotation Xrotation Zrotation
   JOINT Chest3
   {
    OFFSET 0.000000 9.561800 0.000000
    CHANNELS 3 Yrotation Xrotation Zrotation
    JOINT Chest4
    {
     OFFSET 0.000000 9.552100 0.000000
     CHANNELS 3 Yrotation Xrotation Zrotation
     JOINT Neck
     {
      OFFSET 0.000000 14.453000 0.000000
      CHANNELS 3 Yrotation Xrotation Zrotation
      JOINT Head
      {
       OFFSET 0.000000 8.936500 -0.011300
       CHANNELS 3 Yrotation Xrotation Zrotation
       End Site
       {
        OFFSET 0.000000 17.073600 -0.006000
       }
      }
     }
     JOINT RightCollar
     {
      OFFSET -2.921100 9.558500 0.000000
      CHANNELS 3 Yrotation Xrotation Zrotation
      JOINT RightShoulder
      {
       OFFSET -13.519700 0.000000 0.000000
       CHANNELS 3 Yrotation Xrotation Zrotation
       JOINT RightElbow
       {
        OFFSET 0.000000 -29.696600 0.000000
        CHANNELS 3 Yrotation Xrotation Zrotation
        JOINT RightWrist
        {
         OFFSET 0.000000 -24.004700 0.000000
         CHANNELS 3 Yrotation Xrotation Zrotation
         End Site
         {
          OFFSET 0.000000 -17.728500 0.000000
         }
        }
       }
      }
     }
     JOINT LeftCollar
     {
      OFFSET 2.921100 9.558500 0.000000
      CHANNELS 3 Yrotation Xrotation Zrotation
      JOINT LeftShoulder
      {
       OFFSET 13.519700 0.000000 0.000000
       CHANNELS 3 Yrotation Xrotation Zrotation
       JOINT LeftElbow
       {
        OFFSET 0.000000 -29.696600 0.000000
        CHANNELS 3 Yrotation Xrotation Zrotation
        JOINT LeftWrist
        {
         OFFSET 0.000000 -24.004700 0.000000
         CHANNELS 3 Yrotation Xrotation Zrotation
         End Site
         {
          OFFSET 0.000000 -17.728500 0.000000
         }
        }
       }
      }
     }
    }
   }
  }
 }
 JOINT RightHip
 {
  OFFSET -7.771700 -0.012900 -0.001300
  CHANNELS 3 Yrotation Xrotation Zrotation
  JOINT RightKnee
  {
   OFFSET 0.000000 -40.869800 0.001200
   CHANNELS 3 Yrotation Xrotation Zrotation
   JOINT RightAnkle
   {
    OFFSET 0.000000 -39.717900 0.002100
    CHANNELS 3 Yrotation Xrotation Zrotation
    JOINT RightToe
    {
     OFFSET 0.000000 -4.965400 11.033500
     CHANNELS 3 Yrotation Xrotation Zrotation
     End Site
     {
      OFFSET 0.000000 -1.423100 5.872300
     }
    }
   }
  }
 }
 JOINT LeftHip
 {
  OFFSET 7.771700 -0.012900 -0.001300
  CHANNELS 3 Yrotation Xrotation Zrotation
  JOINT LeftKnee
  {
   OFFSET 0.000000 -40.869800 0.001200
   CHANNELS 3 Yrotation Xrotation Zrotation
   JOINT LeftAnkle
   {
    OFFSET 0.000000 -39.717900 0.002100
    CHANNELS 3 Yrotation Xrotation Zrotation
    JOINT LeftToe
    {
     OFFSET 0.000000 -4.965400 11.033500
     CHANNELS 3 Yrotation Xrotation Zrotation
     End Site
     {
      OFFSET 0.000000 -1.423100 5.872300
     }
    }
   }
  }
 }
}
MOTION
Frames: 11
Frame Time: 0.008333
-49.298296 62.123087 13.921460 176.161617 -52.320859 -0.104017 4.176281 27.196720 0.494145 0.644579 4.660649 0.058161 1.047408 7.352691 0.120469 3.255262 21.933061 0.793790 0.263756 17.704118 2.780078 -0.482088 -2.885697 5.035411 5.493641 7.289989 5.863832 2.203995 -12.729041 -14.460763 -86.009293 -86.633995 112.352775 25.870555 15.169595 3.283502 -9.940492 3.980443 -1.363649 -9.161042 -11.134196 19.547325 -77.533319 -73.732154 57.083830 -3.301680 4.396200 -1.376152 3.630120 -14.371205 -6.663206 3.995651 60.862302 -0.279438 1.546598 -6.590827 11.125508 0.055514 0.207573 -0.033796 0.574532 -3.877226 6.917308 124.069120 83.906497 132.976014 -4.706265 -15.725432 -10.433924 0.261215 -22.321298 -0.891855
-49.298492 62.126861 13.909640 176.178030 -52.321053 -0.101135 4.168073 27.187647 0.481646 0.645197 4.659432 0.060155 1.050455 7.350665 0.118564 3.267509 21.924631 0.792287 0.229576 17.718844 2.786228 -0.539070 -2.887789 5.038641 5.474912 7.297844 5.879062 2.198601 -12.727779 -14.466974 -86.692160 -86.595442 113.042117 25.852596 15.142332 3.281620 -9.952325 3.992039 -1.376225 -9.166827 -11.117726 19.569653 -77.856772 -73.812465 57.467639 -3.316684 4.409710 -1.398842 3.613958 -14.372241 -6.676201 4.085710 60.904795 -0.205781 1.498842 -6.740991 11.120732 0.057881 0.215955 -0.019660 0.568139 -3.870519 6.905760 124.074851 83.905864 132.975197 -4.710537 -15.727679 -10.426094 0.263931 -22.326196 -0.893176
-49.298917 62.130395 13.897853 176.193229 -52.323270 -0.098180 4.159092 27.181863 0.469136 0.647552 4.657623 0.059312 1.048873 7.351045 0.118450 3.268727 21.923545 0.790349 0.197409 17.707972 2.776827 -0.568112 -2.882159 5.044671 5.458913 7.283800 5.878103 2.203579 -12.710675 -14.464697 -88.472533 -86.522461 114.839071 25.848084 15.179351 3.303601 -9.952835 3.996054 -1.382452 -9.130756 -11.107097 19.583759 -78.290361 -73.909684 57.937942 -3.337183 4.430667 -1.430941 3.602910 -14.371353 -6.686196 4.162603 60.947704 -0.145726 1.461069 -6.889049 11.115071 0.058840 0.219199 -0.003973 0.562377 -3.861496 6.895196 124.066412 83.905136 132.960657 -4.717861 -15.730992 -10.418559 0.265158 -22.329895 -0.892850
-49.299356 62.133296 13.886439 176.205854 -52.324720 -0.094622 4.147380 27.179930 0.455770 0.654305 4.652945 0.059313 1.042531 7.352256 0.117642 3.268875 21.925673 0.789492 0.173458 17.693665 2.765810 -0.599421 -2.888066 5.046312 5.451824 7.273256 5.870726 2.204924 -12.697573 -14.455553 -90.010691 -86.465924 116.397258 25.840556 15.191650 3.318704 -9.945995 3.993245 -1.392530 -9.053552 -11.094774 19.611836 -78.850255 -74.036685 58.502091 -3.367677 4.457059 -1.466649 3.594569 -14.373317 -6.694189 4.231587 60.991937 -0.093646 1.432583 -7.031721 11.106630 0.058723 0.216663 0.012110 0.553939 -3.851923 6.889442 124.069500 83.906922 132.952078 -4.729477 -15.741561 -10.412418 0.268855 -22.327227 -0.888354
-49.300627 62.135805 13.875228 176.209806 -52.326630 -0.080481 4.136995 27.178749 0.437293 0.654749 4.647721 0.058615 1.041646 7.359145 0.117769 3.268186 21.922484 0.786252 0.157192 17.679833 2.756772 -0.633999 -2.902815 5.045995 5.452622 7.265833 5.867712 2.209213 -12.696643 -14.471178 -91.262322 -86.389148 117.663514 25.838518 15.193458 3.333064 -9.936391 3.989315 -1.400559 -9.040809 -11.080620 19.625109 -79.354424 -74.137421 59.074422 -3.400867 4.478174 -1.502930 3.594846 -14.375946 -6.709316 4.301673 61.037444 -0.035911 1.407009 -7.172700 11.094322 0.057867 0.213263 0.026861 0.550044 -3.838220 6.879210 124.056733 83.908823 132.924557 -4.733954 -15.763289 -10.409402 0.268879 -22.313069 -0.881441
-49.304106 62.138315 13.863857 176.201220 -52.331612 -0.044725 4.136824 27.176574 0.413487 0.655774 4.644766 0.056837 1.036091 7.362559 0.115683 3.269138 21.919847 0.780562 0.144079 17.674875 2.757016 -0.648844 -2.905748 5.048061 5.453251 7.261715 5.873534 2.194070 -12.700670 -14.522665 -92.618050 -86.256928 119.048087 25.847793 15.203652 3.353824 -9.929157 3.990525 -1.401295 -9.027965 -11.064052 19.634361 -79.931284 -74.236736 59.725443 -3.426528 4.487159 -1.538209 3.605812 -14.376276 -6.737681 4.352643 61.085641 0.004140 1.389821 -7.315437 11.081644 0.056959 0.211365 0.040308 0.556767 -3.825131 6.859883 124.101119 83.912696 132.957097 -4.759944 -15.777318 -10.407120 0.286834 -22.312194 -0.867335
-49.302619 62.140464 13.853147 176.182317 -52.336276 -0.032877 4.153294 27.179366 0.419249 0.656136 4.643921 0.056564 1.048878 7.350161 0.114744 3.276506 21.913293 0.776925 0.125057 17.690007 2.770731 -0.671378 -2.921823 5.046629 5.443168 7.265315 5.889226 2.182582 -12.694437 -14.551577 -94.238429 -86.135884 120.683677 25.866058 15.213193 3.380196 -9.937554 4.004267 -1.394707 -8.992992 -11.044795 19.645563 -80.625061 -74.348661 60.482268 -3.441485 4.488175 -1.571164 3.614769 -14.376635 -6.725258 4.355423 61.125095 -0.000226 1.382425 -7.447105 11.064491 0.055302 0.207432 0.053531 0.569109 -3.808690 6.881401 124.168029 83.924300 133.010036 -4.777705 -15.800619 -10.398430 0.297676 -22.301290 -0.858223
-49.303282 62.141385 13.843371 176.182841 -52.333311 -0.026838 4.153397 27.176062 0.413586 0.656525 4.642981 0.056400 1.050219 7.348532 0.115393 3.285337 21.906816 0.775011 0.101722 17.674826 2.765847 -0.748347 -2.997992 5.037788 5.441310 7.260759 5.897279 2.172068 -12.687850 -14.575405 -96.002705 -86.016593 122.458115 25.878325 15.216870 3.403258 -9.945527 4.011601 -1.390643 -8.891216 -11.018823 19.655034 -81.528128 -74.488430 61.405787 -3.446856 4.488921 -1.600835 3.615956 -14.385382 -6.722710 4.356037 61.167937 -0.007476 1.365732 -7.574144 11.045308 0.054087 0.200358 0.067151 0.571069 -3.806373 6.884006 124.209941 83.926077 133.043138 -4.788809 -15.812268 -10.391437 0.306544 -22.298464 -0.855053
-49.306109 62.142408 13.833572 176.192351 -52.332214 -0.018401 4.150783 27.172845 0.404844 0.656960 4.641476 0.056047 1.044825 7.349686 0.113667 3.286782 21.905673 0.773630 0.083971 17.651485 2.757815 -0.802076 -3.054682 5.034063 5.439375 7.259949 5.901800 2.167559 -12.685008 -14.583519 -97.928047 -85.911516 124.397969 25.875454 15.214507 3.412057 -9.932561 4.003132 -1.394674 -8.853754 -10.987139 19.668636 -82.342265 -74.632309 62.280511 -3.439987 4.493513 -1.622346 3.615751 -14.391994 -6.726183 4.308088 61.213009 -0.065102 1.365117 -7.695074 11.030611 0.052099 0.188381 0.080047 0.566700 -3.802300 6.873836 124.212723 83.925787 133.037867 -4.804773 -15.822668 -10.390733 0.317915 -22.295166 -0.846512
-49.309468 62.143210 13.824166 176.196150 -52.330249 -0.005997 4.149995 27.169172 0.395048 0.657823 4.640077 0.055377 1.046325 7.347836 0.112609 3.283699 21.907322 0.772946 0.066568 17.625386 2.748905 -0.842294 -3.102108 5.032526 5.444441 7.240618 5.910677 2.153520 -12.667701 -14.622541 -99.780460 -85.769645 126.269676 25.861128 15.205218 3.404271 -9.921393 3.992795 -1.392060 -8.811785 -10.953747 19.676806 -83.155131 -74.799393 63.146133 -3.420945 4.502794 -1.628079 3.617378 -14.400170 -6.735167 4.286177 61.256901 -0.092390 1.358505 -7.813253 11.005151 0.049180 0.178155 0.094070 0.565137 -3.799812 6.861350 124.211145 83.925499 133.031373 -4.823540 -15.827680 -10.390752 0.329359 -22.297049 -0.837537
-49.316905 62.144175 13.814664 176.195596 -52.330216 0.030911 4.140945 27.172409 0.359875 0.658282 4.638547 0.054671 1.050671 7.344176 0.111305 3.288649 21.901750 0.770262 0.026059 17.569760 2.735562 -0.865796 -3.122743 5.036245 5.440367 7.222847 5.929597 2.142231 -12.638091 -14.707147 -101.576955 -85.565735 128.076071 25.844973 15.187383 3.388406 -9.918136 3.987187 -1.384684 -8.768194 -10.917565 19.687302 -83.926856 -74.992544 63.958743 -3.401401 4.513591 -1.613063 3.626700 -14.407022 -6.770554 4.280569 61.305364 -0.104652 1.348832 -7.934290 10.975061 0.046618 0.170351 0.109813 0.566408 -3.795788 6.828894 124.222453 83.925206 133.035380 -4.863664 -15.835630 -10.392491 0.357163 -22.300069 -0.819114
